<?xml version="1.0" standalone="no"?>
<!DOCTYPE svg PUBLIC "-//W3C//DTD SVG 20010904//EN"
 "http://www.w3.org/TR/2001/REC-SVG-20010904/DTD/svg10.dtd">
<svg version="1.0" xmlns="http://www.w3.org/2000/svg"
 width="1244.000000pt" height="1280.000000pt" viewBox="0 0 1244.000000 1280.000000"
 preserveAspectRatio="xMidYMid meet">
<g transform="translate(0.000000,1280.000000) scale(0.100000,-0.100000)"
fill="#000000" stroke="none">
<path d="M6190 12791 c-8 -5 -70 -19 -137 -31 l-123 -22 -107 -77 -108 -76
-47 -164 c-29 -99 -58 -180 -74 -202 l-26 -38 22 -133 c14 -84 34 -164 56
-218 18 -47 56 -157 83 -245 41 -130 60 -174 101 -235 l50 -75 0 -131 c0 -93
-4 -135 -12 -142 -7 -5 -80 -38 -161 -72 -127 -52 -176 -67 -348 -101 l-201
-41 -99 16 c-141 23 -226 20 -486 -14 -414 -54 -536 -69 -678 -80 -148 -12
-283 -23 -482 -40 -89 -8 -144 -8 -200 0 -43 6 -174 24 -290 40 l-213 28 -207
-38 c-115 -21 -383 -70 -598 -110 -214 -39 -399 -69 -410 -66 -36 9 -696 7
-840 -3 -118 -7 -158 -15 -255 -46 -164 -53 -380 -160 -380 -189 0 -3 29 -21
65 -42 47 -26 74 -35 93 -31 15 3 39 -1 55 -9 25 -14 36 -12 126 16 129 39
153 39 168 -1 l12 -31 138 4 c109 4 181 14 342 47 204 41 204 41 320 30 64 -5
387 -55 719 -110 331 -54 620 -99 641 -99 21 0 155 19 297 41 l259 42 385 -2
385 -2 285 -45 c603 -95 725 -115 732 -122 3 -4 45 -207 92 -452 58 -302 91
-496 101 -605 8 -88 26 -291 40 -450 l26 -290 -80 -450 c-44 -248 -103 -594
-131 -770 -28 -176 -57 -360 -66 -410 -11 -70 -17 -278 -25 -945 l-10 -855 59
-310 59 -310 -13 -315 c-7 -173 -17 -416 -23 -540 -6 -124 -16 -342 -22 -485
l-10 -260 75 -460 c42 -253 103 -626 136 -828 l61 -369 -40 -181 c-49 -227
-91 -335 -166 -426 l-55 -68 0 -97 0 -96 334 0 333 0 7 37 c9 57 7 273 -3 398
-32 375 -34 424 -17 605 10 96 26 270 37 385 10 116 28 309 39 430 12 121 25
267 30 325 6 58 16 174 25 259 8 84 12 172 10 195 -3 22 -10 212 -16 421 -6
209 -14 488 -18 620 -9 287 -9 285 99 935 44 261 91 563 104 670 14 107 35
265 46 350 11 85 29 232 41 325 12 94 25 174 29 178 24 27 156 27 180 0 4 -4
17 -84 29 -178 12 -93 30 -240 41 -325 11 -85 32 -243 46 -350 13 -107 60
-409 104 -670 108 -650 108 -648 99 -935 -4 -132 -12 -411 -18 -620 -6 -209
-13 -399 -16 -421 -2 -23 2 -111 10 -195 9 -85 19 -201 25 -259 5 -58 18 -204
30 -325 11 -121 29 -314 39 -430 11 -115 27 -286 36 -380 10 -103 15 -204 11
-255 -3 -47 -13 -173 -21 -280 -15 -204 -19 -409 -9 -473 l7 -37 333 0 334 0
0 96 0 97 -55 68 c-75 90 -117 199 -166 424 l-40 180 21 125 c33 209 138 845
196 1200 l55 335 -10 260 c-6 143 -16 361 -22 485 -6 124 -16 367 -23 540
l-13 315 59 310 59 310 -10 855 c-8 667 -14 875 -25 945 -9 50 -38 234 -66
410 -28 176 -87 522 -131 770 l-80 450 26 290 c14 159 32 362 40 450 14 152
176 1039 194 1057 3 4 137 28 296 53 809 128 672 113 1105 116 l385 2 259 -42
c142 -22 276 -41 297 -41 21 0 310 45 641 99 332 55 655 105 719 110 116 11
116 11 320 -30 161 -33 233 -43 342 -47 l138 -4 12 31 c15 40 39 40 168 1 90
-28 101 -30 126 -16 16 8 40 12 55 9 19 -4 46 5 93 31 36 21 65 39 65 42 0 29
-216 136 -380 189 -97 31 -137 39 -255 46 -144 10 -804 12 -840 3 -11 -3 -196
27 -410 66 -215 40 -483 89 -598 110 l-207 38 -213 -28 c-116 -16 -247 -34
-290 -40 -56 -8 -111 -8 -200 0 -199 17 -334 28 -482 40 -142 11 -264 26 -678
80 -260 34 -345 37 -486 14 l-99 -16 -201 41 c-172 34 -221 49 -348 101 -81
34 -154 67 -160 72 -9 7 -13 49 -13 142 l0 131 50 75 c41 61 60 105 101 235
27 88 65 198 83 245 22 54 42 134 56 218 l22 133 -26 38 c-16 22 -45 103 -74
201 l-47 165 -105 75 -105 75 -135 28 c-74 15 -144 30 -155 33 -11 2 -27 0
-35 -5z"/>
</g>
</svg>
